<mxfile host="app.diagrams.net" agent="Mozilla/5.0 (Windows NT 10.0; Win64; x64) AppleWebKit/537.36 (KHTML, like Gecko) Chrome/131.0.0.0 Safari/537.36" version="25.0.3">
  <diagram id="C5RBs43oDa-KdzZeNtuy" name="Page-1">
    <mxGraphModel dx="2150" dy="883" grid="1" gridSize="10" guides="1" tooltips="1" connect="1" arrows="1" fold="1" page="1" pageScale="1" pageWidth="827" pageHeight="1169" math="0" shadow="0">
      <root>
        <mxCell id="WIyWlLk6GJQsqaUBKTNV-0" />
        <mxCell id="WIyWlLk6GJQsqaUBKTNV-1" parent="WIyWlLk6GJQsqaUBKTNV-0" />
        <mxCell id="bD2OpBkLtDB_hy9ifrke-2" style="edgeStyle=orthogonalEdgeStyle;rounded=0;orthogonalLoop=1;jettySize=auto;html=1;exitX=0.5;exitY=1;exitDx=0;exitDy=0;exitPerimeter=0;" edge="1" parent="WIyWlLk6GJQsqaUBKTNV-1" source="bD2OpBkLtDB_hy9ifrke-0" target="bD2OpBkLtDB_hy9ifrke-1">
          <mxGeometry relative="1" as="geometry" />
        </mxCell>
        <mxCell id="bD2OpBkLtDB_hy9ifrke-0" value="START" style="strokeWidth=2;html=1;shape=mxgraph.flowchart.start_1;whiteSpace=wrap;" vertex="1" parent="WIyWlLk6GJQsqaUBKTNV-1">
          <mxGeometry x="340" y="90" width="100" height="60" as="geometry" />
        </mxCell>
        <mxCell id="bD2OpBkLtDB_hy9ifrke-4" style="edgeStyle=orthogonalEdgeStyle;rounded=0;orthogonalLoop=1;jettySize=auto;html=1;exitX=0.5;exitY=1;exitDx=0;exitDy=0;entryX=0.5;entryY=0;entryDx=0;entryDy=0;" edge="1" parent="WIyWlLk6GJQsqaUBKTNV-1" source="bD2OpBkLtDB_hy9ifrke-1" target="bD2OpBkLtDB_hy9ifrke-3">
          <mxGeometry relative="1" as="geometry" />
        </mxCell>
        <mxCell id="bD2OpBkLtDB_hy9ifrke-1" value="READ PENNY&lt;div&gt;READ NICKEL&lt;/div&gt;&lt;div&gt;READ DIME&lt;/div&gt;&lt;div&gt;READ QUARTER&lt;/div&gt;&lt;div&gt;READ DOLLAR&lt;/div&gt;" style="shape=parallelogram;html=1;strokeWidth=2;perimeter=parallelogramPerimeter;whiteSpace=wrap;rounded=1;arcSize=12;size=0.23;" vertex="1" parent="WIyWlLk6GJQsqaUBKTNV-1">
          <mxGeometry x="265" y="220" width="250" height="120" as="geometry" />
        </mxCell>
        <mxCell id="bD2OpBkLtDB_hy9ifrke-6" style="edgeStyle=orthogonalEdgeStyle;rounded=0;orthogonalLoop=1;jettySize=auto;html=1;exitX=0.5;exitY=1;exitDx=0;exitDy=0;" edge="1" parent="WIyWlLk6GJQsqaUBKTNV-1" source="bD2OpBkLtDB_hy9ifrke-3" target="bD2OpBkLtDB_hy9ifrke-5">
          <mxGeometry relative="1" as="geometry" />
        </mxCell>
        <mxCell id="bD2OpBkLtDB_hy9ifrke-3" value="PENNIES = (PENNY * 1)+(NICKEL *5)+(DIME *10)+(QUARTER *25)+(DOLLAR *100)" style="rounded=1;whiteSpace=wrap;html=1;absoluteArcSize=1;arcSize=14;strokeWidth=2;" vertex="1" parent="WIyWlLk6GJQsqaUBKTNV-1">
          <mxGeometry x="137.5" y="410" width="505" height="100" as="geometry" />
        </mxCell>
        <mxCell id="bD2OpBkLtDB_hy9ifrke-8" style="edgeStyle=orthogonalEdgeStyle;rounded=0;orthogonalLoop=1;jettySize=auto;html=1;exitX=0.5;exitY=1;exitDx=0;exitDy=0;" edge="1" parent="WIyWlLk6GJQsqaUBKTNV-1" source="bD2OpBkLtDB_hy9ifrke-5" target="bD2OpBkLtDB_hy9ifrke-7">
          <mxGeometry relative="1" as="geometry" />
        </mxCell>
        <mxCell id="bD2OpBkLtDB_hy9ifrke-5" value="DOLLARS = PENNIES / 100" style="rounded=1;whiteSpace=wrap;html=1;absoluteArcSize=1;arcSize=14;strokeWidth=2;" vertex="1" parent="WIyWlLk6GJQsqaUBKTNV-1">
          <mxGeometry x="250" y="560" width="280" height="70" as="geometry" />
        </mxCell>
        <mxCell id="bD2OpBkLtDB_hy9ifrke-10" style="edgeStyle=orthogonalEdgeStyle;rounded=0;orthogonalLoop=1;jettySize=auto;html=1;exitX=0.5;exitY=1;exitDx=0;exitDy=0;" edge="1" parent="WIyWlLk6GJQsqaUBKTNV-1" source="bD2OpBkLtDB_hy9ifrke-7" target="bD2OpBkLtDB_hy9ifrke-9">
          <mxGeometry relative="1" as="geometry" />
        </mxCell>
        <mxCell id="bD2OpBkLtDB_hy9ifrke-7" value="PRINT PENNIES , DOLLARS" style="shape=parallelogram;html=1;strokeWidth=2;perimeter=parallelogramPerimeter;whiteSpace=wrap;rounded=1;arcSize=12;size=0.23;" vertex="1" parent="WIyWlLk6GJQsqaUBKTNV-1">
          <mxGeometry x="250" y="690" width="280" height="70" as="geometry" />
        </mxCell>
        <mxCell id="bD2OpBkLtDB_hy9ifrke-9" value="END" style="strokeWidth=2;html=1;shape=mxgraph.flowchart.terminator;whiteSpace=wrap;" vertex="1" parent="WIyWlLk6GJQsqaUBKTNV-1">
          <mxGeometry x="340" y="800" width="100" height="60" as="geometry" />
        </mxCell>
      </root>
    </mxGraphModel>
  </diagram>
</mxfile>
